name precision_landing03_filtered_grf.mot
datacolumns 37
datarows 7
range 1.290000 1.293000
endheader
time	1_ground_force_vx	1_ground_force_vy	1_ground_force_vz	1_ground_force_px	1_ground_force_py	1_ground_force_pz	1_ground_torque_x	1_ground_torque_y	1_ground_torque_z	2_ground_force_vx	2_ground_force_vy	2_ground_force_vz	2_ground_force_px	2_ground_force_py	2_ground_force_pz	2_ground_torque_x	2_ground_torque_y	2_ground_torque_z	3_ground_force_vx	3_ground_force_vy	3_ground_force_vz	3_ground_force_px	3_ground_force_py	3_ground_force_pz	3_ground_torque_x	3_ground_torque_y	3_ground_torque_z	4_ground_force_vx	4_ground_force_vy	4_ground_force_vz	4_ground_force_px	4_ground_force_py	4_ground_force_pz	4_ground_torque_x	4_ground_torque_y	4_ground_torque_z
            1.290000	          -29.992892	          746.968185	          104.442523	            0.138263	            0.000000	            0.299200	           -0.586117	           14.597154	            2.041002	           59.376688	          853.129849	          132.268802	           -0.128388	            0.000000	            0.290814	            2.028025	           29.138849	            4.517672	           10.299448	           -1.325297	           -5.140682	            0.381076	            1.275628	            1.884927	           -0.002154	            0.000277	            0.001075	           -3.776907	           -0.315883	            4.936201	           -0.351646	            1.268382	            1.873075	            0.018484	            0.001546	           -0.024158
            1.290500	          -30.857314	          747.334633	          102.896609	            0.138528	            0.000000	            0.299444	           -0.599811	           14.526846	            2.000126	           60.048437	          851.451715	          131.466211	           -0.128575	            0.000000	            0.291051	            2.046971	           29.024850	            4.481507	           10.293582	           -1.317734	           -5.138233	            0.381073	            1.275627	            1.884926	           -0.001983	            0.000254	            0.000990	           -3.780477	           -0.314271	            4.919399	           -0.351648	            1.268381	            1.873074	            0.018265	            0.001518	           -0.023767
            1.291000	          -31.728555	          747.751858	          101.334156	            0.138790	            0.000000	            0.299689	           -0.613430	           14.456791	            1.959162	           60.725100	          849.827205	          130.638276	           -0.128759	            0.000000	            0.291291	            2.065563	           28.906861	            4.443659	           10.287003	           -1.310658	           -5.137015	            0.381070	            1.275625	            1.884926	           -0.001827	            0.000233	            0.000912	           -3.783051	           -0.314010	            4.902980	           -0.351650	            1.268381	            1.873073	            0.018038	            0.001497	           -0.023378
            1.291500	          -32.603976	          748.215741	           99.757047	            0.139050	            0.000000	            0.299936	           -0.626930	           14.387159	            1.918191	           61.405382	          848.256962	          129.784855	           -0.128941	            0.000000	            0.291535	            2.083731	           28.784759	            4.404120	           10.279753	           -1.304050	           -5.137042	            0.381067	            1.275624	            1.884925	           -0.001686	            0.000214	            0.000842	           -3.784591	           -0.315220	            4.886859	           -0.351652	            1.268380	            1.873072	            0.017806	            0.001483	           -0.022992
            1.292000	          -33.480884	          748.721734	           98.167342	            0.139307	            0.000000	            0.300183	           -0.640269	           14.318112	            1.877294	           62.088105	          846.741411	          128.906022	           -0.129121	            0.000000	            0.291783	            2.101409	           28.658464	            4.362901	           10.271888	           -1.297894	           -5.138323	            0.381064	            1.275623	            1.884924	           -0.001560	            0.000197	            0.000780	           -3.785070	           -0.318000	            4.870958	           -0.351654	            1.268380	            1.873071	            0.017569	            0.001476	           -0.022609
            1.292500	          -34.356558	          749.264883	           96.567269	            0.139560	            0.000000	            0.300430	           -0.653406	           14.249798	            1.836552	           62.772213	          845.280750	          128.002073	           -0.129299	            0.000000	            0.292035	            2.118542	           28.527948	            4.320028	           10.263475	           -1.292174	           -5.140866	            0.381061	            1.275622	            1.884924	           -0.001448	            0.000182	            0.000725	           -3.784474	           -0.322428	            4.855202	           -0.351656	            1.268379	            1.873070	            0.017329	            0.001476	           -0.022231
            1.293000	          -35.228259	          749.839863	           94.959209	            0.139810	            0.000000	            0.300677	           -0.666302	           14.182352	            1.796043	           63.456777	          843.874940	          127.073534	           -0.129473	            0.000000	            0.292289	            2.135083	           28.393231	            4.275549	           10.254555	           -1.286871	           -5.144743	            0.381058	            1.275620	            1.884923	           -0.001350	            0.000169	            0.000677	           -3.782778	           -0.328548	            4.839543	           -0.351657	            1.268378	            1.873066	            0.017087	            0.001484	           -0.021860
